<?xml version="1.0" encoding="utf-8"?>
<!-- Generator: Adobe Illustrator 22.1.0, SVG Export Plug-In . SVG Version: 6.00 Build 0)  -->
<svg version="1.1" id="Layer_1" xmlns="http://www.w3.org/2000/svg" xmlns:xlink="http://www.w3.org/1999/xlink" x="0px" y="0px"
	 viewBox="0 0 128 128" style="enable-background:new 0 0 128 128;" xml:space="preserve">
<style type="text/css">
	.st0{fill:#C2B280;}
</style>
<path class="st0" d="M101.9,16.4H26.1c-5.2,0-9.4,4.2-9.4,9.4v76.5c0,5.2,4.2,9.4,9.4,9.4h75.7c5.2,0,9.4-4.2,9.4-9.4V25.8
	C111.2,20.6,107,16.4,101.9,16.4z M103.7,27.3v47.2H59.5V23.9h40.8C102.2,23.9,103.7,25.4,103.7,27.3z M27.7,23.9H52v50.6H24.3V27.3
	C24.3,25.4,25.8,23.9,27.7,23.9z M24.3,100.7V82h49.8v22.1H27.7C25.8,104.1,24.3,102.6,24.3,100.7z M100.3,104.1H81.6V82h22.1v18.7
	C103.7,102.6,102.2,104.1,100.3,104.1z"/>
</svg>
