<?xml version="1.0" encoding="utf-8"?>
<!-- Generator: Adobe Illustrator 22.1.0, SVG Export Plug-In . SVG Version: 6.00 Build 0)  -->
<svg version="1.1" id="Layer_1" xmlns="http://www.w3.org/2000/svg" xmlns:xlink="http://www.w3.org/1999/xlink" x="0px" y="0px"
	 viewBox="0 0 128 128" style="enable-background:new 0 0 128 128;" xml:space="preserve">
<style type="text/css">
	.st0{fill:#C2B280;}
</style>
<g>
	<path class="st0" d="M74.1,34.9c-1.6-1.7-3.9-2.6-6.2-2.6h-42c-4.8,0-8.7,3.9-8.7,8.7v65.7c0,4.8,3.9,8.7,8.7,8.7h54.2
		c4.8,0,8.7-3.9,8.7-8.7V53.4c0-2.3-0.9-4.4-2.5-6.1L74.1,34.9z M81.9,105.7c0,1.5-1.2,2.7-2.7,2.7H26.8c-1.5,0-2.7-1.2-2.7-2.7
		V41.9c0-1.5,1.2-2.7,2.7-2.7h41.1c0.5,0,0.9,0.2,1.2,0.5l12.3,12.5c0.3,0.3,0.5,0.8,0.5,1.2V105.7z"/>
	<path class="st0" d="M108.3,27.8L96.1,15.3c-1.6-1.7-3.9-2.6-6.2-2.6h-42c-4.8,0-8.7,3.9-8.7,8.7v3.3h7v-2.3c0-1.5,1.2-2.8,2.8-2.8
		h41c0.5,0,0.9,0.2,1.2,0.5l12.3,12.5c0.3,0.3,0.5,0.8,0.5,1.2v52.5c0,1.3-1.1,2.4-2.4,2.4h-3.1v7h3.8c4.8,0,8.7-3.9,8.7-8.7V33.9
		C110.8,31.6,109.9,29.4,108.3,27.8z"/>
	<path class="st0" d="M69.2,53.3H36.8c-1.8,0-3.2,1.4-3.2,3.2c0,1.8,1.4,3.2,3.2,3.2h32.4c1.8,0,3.2-1.4,3.2-3.2
		C72.4,54.8,71,53.3,69.2,53.3z"/>
	<path class="st0" d="M69.2,70H36.8c-1.8,0-3.2,1.4-3.2,3.2s1.4,3.2,3.2,3.2h32.4c1.8,0,3.2-1.4,3.2-3.2S71,70,69.2,70z"/>
	<path class="st0" d="M69.2,86.7H36.8c-1.8,0-3.2,1.4-3.2,3.2c0,1.8,1.4,3.2,3.2,3.2h32.4c1.8,0,3.2-1.4,3.2-3.2
		C72.4,88.1,71,86.7,69.2,86.7z"/>
</g>
</svg>
