<?xml version="1.0" encoding="utf-8"?>
<!-- Generator: Adobe Illustrator 22.1.0, SVG Export Plug-In . SVG Version: 6.00 Build 0)  -->
<svg version="1.1" id="Layer_1" xmlns="http://www.w3.org/2000/svg" xmlns:xlink="http://www.w3.org/1999/xlink" x="0px" y="0px"
	 viewBox="0 0 128 128" style="enable-background:new 0 0 128 128;" xml:space="preserve">
<style type="text/css">
	.st0{fill:#C2B280;}
</style>
<path class="st0" d="M107.3,17H77.8c-2.1,0-3.7,1.7-3.7,3.7v14.9H48.7c-2.1,0-3.7,1.7-3.7,3.7V52H20.7c-2.1,0-3.7,1.7-3.7,3.7v51.5
	c0,2.1,1.7,3.7,3.7,3.7h86.5c2.1,0,3.7-1.7,3.7-3.7V20.7C111,18.7,109.3,17,107.3,17z M103.5,24.5v79.1h-22V24.5H103.5z M74.1,43.1
	v60.4H52.4V43.1H74.1z M24.5,59.5H45v44H24.5V59.5z"/>
</svg>
