<?xml version="1.0" encoding="utf-8"?>
<!-- Generator: Adobe Illustrator 22.1.0, SVG Export Plug-In . SVG Version: 6.00 Build 0)  -->
<svg version="1.1" id="Layer_1" xmlns="http://www.w3.org/2000/svg" xmlns:xlink="http://www.w3.org/1999/xlink" x="0px" y="0px"
	 viewBox="0 0 128 128" style="enable-background:new 0 0 128 128;" xml:space="preserve">
<style type="text/css">
	.st0{fill:#C2B280;}
</style>
<g>
	<path class="st0" d="M107.2,51.6c2.1,0,3.7-1.7,3.7-3.7V25.8c0-2.1-1.7-3.7-3.7-3.7H85c-2.1,0-3.7,1.7-3.7,3.7v22.1
		c0,2.1,1.7,3.7,3.7,3.7h6.6v24.3c-6.6,1.7-11.4,7.7-11.4,14.8c0,8.4,6.9,15.3,15.3,15.3s15.3-6.9,15.3-15.3c0-7.2-5-13.2-11.6-14.8
		V51.6H107.2z M103.9,90.7c0,4.6-3.8,8.4-8.4,8.4c-4.6,0-8.4-3.8-8.4-8.4c0-4.6,3.8-8.4,8.4-8.4C100.2,82.3,103.9,86.1,103.9,90.7z
		 M88.3,29h15.6v15.6H88.3V29z"/>
	<path class="st0" d="M36.2,75.9V51.6H43c2.1,0,3.7-1.7,3.7-3.7V25.8c0-2.1-1.7-3.7-3.7-3.7H20.8c-2.1,0-3.7,1.7-3.7,3.7v22.1
		c0,2.1,1.7,3.7,3.7,3.7h7.9v24.3c-6.6,1.7-11.4,7.7-11.4,14.8c0,8.4,6.9,15.3,15.3,15.3s15.3-6.9,15.3-15.3
		C47.8,83.5,42.9,77.5,36.2,75.9z M24.1,29h15.6v15.6H24.1V29z M32.6,99.1c-4.6,0-8.4-3.8-8.4-8.4c0-4.6,3.8-8.4,8.4-8.4
		c4.6,0,8.4,3.8,8.4,8.4C41,95.3,37.2,99.1,32.6,99.1z"/>
	<path class="st0" d="M67.7,75.9V51.6h7.4c2.1,0,3.7-1.7,3.7-3.7V25.8c0-2.1-1.7-3.7-3.7-3.7H52.9c-2.1,0-3.7,1.7-3.7,3.7v22.1
		c0,2.1,1.7,3.7,3.7,3.7h7.3v24.3c-6.6,1.7-11.4,7.7-11.4,14.8c0,8.4,6.9,15.3,15.3,15.3s15.3-6.9,15.3-15.3
		C79.3,83.5,74.4,77.5,67.7,75.9z M56.2,29h15.6v15.6H56.2V29z M64,99.1c-4.6,0-8.4-3.8-8.4-8.4c0-4.6,3.8-8.4,8.4-8.4
		s8.4,3.8,8.4,8.4C72.4,95.3,68.7,99.1,64,99.1z"/>
</g>
</svg>
