<?xml version="1.0" encoding="utf-8"?>
<!-- Generator: Adobe Illustrator 22.1.0, SVG Export Plug-In . SVG Version: 6.00 Build 0)  -->
<svg version="1.1" id="Layer_1" xmlns="http://www.w3.org/2000/svg" xmlns:xlink="http://www.w3.org/1999/xlink" x="0px" y="0px"
	 viewBox="0 0 128 128" style="enable-background:new 0 0 128 128;" xml:space="preserve">
<style type="text/css">
	.st0{fill:#C2B280;}
</style>
<g>
	<rect x="48.6" y="17.3" class="st0" width="18.7" height="7.2"/>
	<path class="st0" d="M38.9,28.5c2,0,3.6-1.6,3.6-3.6v-8.6c0-2-1.6-3.6-3.6-3.6s-3.6,1.6-3.6,3.6v8.6C35.3,26.9,36.9,28.5,38.9,28.5
		z"/>
	<path class="st0" d="M76.3,28.5c2,0,3.6-1.6,3.6-3.6v-8.6c0-2-1.6-3.6-3.6-3.6s-3.6,1.6-3.6,3.6v8.6C72.7,26.9,74.3,28.5,76.3,28.5
		z"/>
	<rect x="31.2" y="59.2" class="st0" width="9.4" height="9.4"/>
	<rect x="31.2" y="77.9" class="st0" width="9.4" height="9.4"/>
	<path class="st0" d="M96.4,74.4L90,68.8c-1-0.9-2.6-0.4-3,0.9c-0.4,1.4-0.4,2.9,0.1,4.2l-2.3,2.7c-3.5-1.4-7.7-0.5-10.3,2.5
		c-0.6,0.6-0.5,1.6,0.2,2.2l4.6,4l-6.8,8.8c-0.3,0.4-0.2,0.9,0.1,1.2c0.4,0.3,0.9,0.3,1.3,0l7.8-8l4.6,4c0.3,0.3,0.7,0.4,1,0.4
		c0.4,0,0.9-0.2,1.2-0.5c1.6-1.9,2.4-4.2,2.2-6.7c-0.1-1.3-0.5-2.6-1.1-3.7l2.4-2.8c1.3,0.3,2.7,0.1,4-0.5
		C97.2,76.8,97.4,75.2,96.4,74.4z"/>
	<path class="st0" d="M103.7,58.4v-32c0-5-4-9-9-9h-9.2v7.2h7.6c1.9,0,3.4,1.5,3.4,3.4v12.7H19.9V27.9c0-1.9,1.5-3.4,3.4-3.4h6.5
		v-7.2h-8.1c-5,0-9,4-9,9v17.5c0,0.1,0,0.2,0,0.3s0,0.2,0,0.3v54.9c0,5,4,9,9,9h41.5c6.1,4.9,14,7.6,22.6,6.9
		c14.9-1.1,27.5-13,29.4-27.8C116.6,75.8,111.8,65.1,103.7,58.4z M19.9,97.8v-50h76.6v6.1C92.4,52,87.9,51,83.2,51
		c-11.6,0-21.9,6.2-27.5,15.5v-7.2h-9.4v9.4h8.2c-1.5,2.9-2.5,6-3.1,9.4h-5.1v9.4h4.9c0.7,5.1,2.5,9.8,5.2,13.8H23.2
		C21.4,101.1,19.9,99.6,19.9,97.8z M83.2,108.1c-13.8,0-25-11.2-25-25s11.2-25,25-25s25,11.2,25,25S96.9,108.1,83.2,108.1z"/>
</g>
</svg>
