<?xml version="1.0" encoding="utf-8"?>
<!-- Generator: Adobe Illustrator 22.1.0, SVG Export Plug-In . SVG Version: 6.00 Build 0)  -->
<svg version="1.1" id="Layer_1" xmlns="http://www.w3.org/2000/svg" xmlns:xlink="http://www.w3.org/1999/xlink" x="0px" y="0px"
	 viewBox="0 0 128 128" style="enable-background:new 0 0 128 128;" xml:space="preserve">
<style type="text/css">
	.st0{fill:#C2B280;}
</style>
<g>
	<path class="st0" d="M101.9,19.1h-9.5v7.5h7.9c1.9,0,3.5,1.6,3.5,3.5v13.2H24.2V30c0-1.9,1.6-3.5,3.5-3.5h6.8v-7.5h-8.4
		c-5.2,0-9.3,4.2-9.3,9.3v18.2c0,0.1,0,0.2,0,0.3s0,0.2,0,0.3v57c0,5.1,4.2,9.3,9.3,9.3l75.8,0.2c0,0,0,0,0,0c2.5,0,4.8-1,6.6-2.7
		c1.8-1.8,2.7-4.1,2.7-6.6v-76C111.3,23.3,107.1,19.1,101.9,19.1z M24.2,102.7v-52h79.6v52.1c0,1.9-1.6,3.5-3.5,3.5l-72.6-0.1
		C25.8,106.1,24.2,104.6,24.2,102.7z"/>
	<rect x="54" y="19.1" class="st0" width="19.5" height="7.5"/>
	<path class="st0" d="M44,30.7c2.1,0,3.7-1.7,3.7-3.7v-9c0-2.1-1.7-3.7-3.7-3.7c-2.1,0-3.7,1.7-3.7,3.7v9C40.3,29,42,30.7,44,30.7z"
		/>
	<path class="st0" d="M82.9,30.7c2.1,0,3.7-1.7,3.7-3.7v-9c0-2.1-1.7-3.7-3.7-3.7s-3.7,1.7-3.7,3.7v9C79.1,29,80.8,30.7,82.9,30.7z"
		/>
	<rect x="35.6" y="62.6" class="st0" width="9.7" height="9.7"/>
	<rect x="51.3" y="62.6" class="st0" width="9.7" height="9.7"/>
	<rect x="67" y="62.6" class="st0" width="9.7" height="9.7"/>
	<rect x="82.7" y="62.6" class="st0" width="9.7" height="9.7"/>
	<rect x="35.6" y="83.5" class="st0" width="9.7" height="9.7"/>
	<rect x="51.3" y="83.5" class="st0" width="9.7" height="9.7"/>
	<rect x="67" y="83.5" class="st0" width="9.7" height="9.7"/>
	<rect x="82.7" y="83.5" class="st0" width="9.7" height="9.7"/>
</g>
</svg>
