<?xml version="1.0" encoding="utf-8"?>
<!-- Generator: Adobe Illustrator 22.1.0, SVG Export Plug-In . SVG Version: 6.00 Build 0)  -->
<svg version="1.1" id="Layer_1" xmlns="http://www.w3.org/2000/svg" xmlns:xlink="http://www.w3.org/1999/xlink" x="0px" y="0px"
	 viewBox="0 0 128 128" style="enable-background:new 0 0 128 128;" xml:space="preserve">
<style type="text/css">
	.st0{fill:#C2B280;}
</style>
<path class="st0" d="M33.9,21.3L18.4,37.5c-1.3,1.4-2,3.2-2,5v63.9c0,4,3.3,7.3,7.3,7.3h63.8c2,0,3.9-0.8,5.3-2.2l15.6-16.2
	c2.1-2.2,3.3-5.1,3.3-8.2v-62c0-4-3.3-7.3-7.3-7.3H42.5C39.2,17.6,36.1,19,33.9,21.3z M42.6,44.6h42.8v42.1H42.6V44.6z M87.5,37.4
	H42.6V24.9h56.9L87.5,37.4z M35.3,37.4h-6.8l6.8-7.1V37.4z M35.3,44.6v44.1h0.1L23.7,101V44.6H35.3z M40.5,94h44.9v12.4H28.6
	L40.5,94z M92.7,94h6.7l-6.7,7V94z M92.7,86.7V42.5l11.7-12.2v56.4H92.7z"/>
</svg>
