<?xml version="1.0" encoding="utf-8"?>
<!-- Generator: Adobe Illustrator 22.1.0, SVG Export Plug-In . SVG Version: 6.00 Build 0)  -->
<svg version="1.1" id="Layer_1" xmlns="http://www.w3.org/2000/svg" xmlns:xlink="http://www.w3.org/1999/xlink" x="0px" y="0px"
	 viewBox="0 0 128 128" style="enable-background:new 0 0 128 128;" xml:space="preserve">
<style type="text/css">
	.st0{fill:#C2B280;}
</style>
<g>
	<path class="st0" d="M114.3,32.1l-12.7-12.7c-1.4-1.4-3.7-1.4-5.1,0s-1.4,3.7,0,5.1l3.7,3.7l-5.7,5.6c-7.9-6.9-17.9-11.4-29-12.2
		V15h14.4c2,0,3.6-1.6,3.6-3.6s-1.6-3.6-3.6-3.6H44.1c-2,0-3.6,1.6-3.6,3.6s1.6,3.6,3.6,3.6h14.4v6.6c-25.5,1.8-45.8,23.2-45.8,49.2
		c0,27.2,22.1,49.3,49.3,49.3s49.3-22.1,49.3-49.3c0-12.2-4.4-23.3-11.8-31.9l5.7-5.6l3.9,3.9c0.7,0.7,1.6,1.1,2.5,1.1
		c0.9,0,1.8-0.4,2.5-1.1C115.7,35.8,115.7,33.5,114.3,32.1z M62,113c-23.3,0-42.2-18.9-42.2-42.2S38.7,28.7,62,28.7
		s42.2,18.9,42.2,42.2S85.2,113,62,113z"/>
	<path class="st0" d="M79.7,47.5L65.3,62.5c-1-0.4-2.1-0.6-3.3-0.6c-5,0-9,4-9,9c0,5,4,9,9,9s9-4,9-9c0-1.2-0.2-2.3-0.6-3.3l14.5-15
		c1.4-1.4,1.3-3.7-0.1-5.1C83.3,46.1,81.1,46.1,79.7,47.5z"/>
</g>
</svg>
