<?xml version="1.0" encoding="utf-8"?>
<!-- Generator: Adobe Illustrator 22.1.0, SVG Export Plug-In . SVG Version: 6.00 Build 0)  -->
<svg version="1.1" id="Layer_1" xmlns="http://www.w3.org/2000/svg" xmlns:xlink="http://www.w3.org/1999/xlink" x="0px" y="0px"
	 viewBox="0 0 128 128" style="enable-background:new 0 0 128 128;" xml:space="preserve">
<style type="text/css">
	.st0{fill:#C2B280;}
</style>
<g>
	<path class="st0" d="M19.9,32h50.5c1.5,6.8,7.6,11.8,14.8,11.8c7.2,0,13.3-5.1,14.8-11.9c0.1,0,0.3,0,0.4,0h7.7
		c2,0,3.5-1.6,3.5-3.5s-1.6-3.5-3.5-3.5h-7.7c-0.2,0-0.3,0-0.5,0c-1.6-6.6-7.6-11.5-14.7-11.5c-7.1,0-13.1,4.9-14.7,11.5H19.9
		c-2,0-3.5,1.6-3.5,3.5S17.9,32,19.9,32z M85.2,20.6c4.5,0,8.1,3.6,8.1,8.1s-3.6,8.1-8.1,8.1s-8.1-3.6-8.1-8.1S80.7,20.6,85.2,20.6z
		"/>
	<path class="st0" d="M108.1,60.6H57.6c-1.5-6.8-7.6-11.8-14.8-11.8c-7.2,0-13.3,5.1-14.8,11.9c-0.1,0-0.3,0-0.4,0h-7.7
		c-2,0-3.5,1.6-3.5,3.5s1.6,3.5,3.5,3.5h7.7c0.2,0,0.3,0,0.5,0c1.6,6.6,7.6,11.5,14.7,11.5c7.1,0,13.1-4.9,14.7-11.5h50.6
		c2,0,3.5-1.6,3.5-3.5S110.1,60.6,108.1,60.6z M42.8,72.1c-4.5,0-8.1-3.6-8.1-8.1s3.6-8.1,8.1-8.1s8.1,3.6,8.1,8.1
		S47.3,72.1,42.8,72.1z"/>
	<path class="st0" d="M108.1,95.6h-8.2c-1.7-6.6-7.6-11.5-14.7-11.5c-7.1,0-13.1,4.9-14.7,11.5H19.9c-2,0-3.5,1.6-3.5,3.5
		s1.6,3.5,3.5,3.5h50.5c1.5,6.8,7.6,11.8,14.8,11.8c7.2,0,13.3-5.1,14.8-11.8h8.1c2,0,3.5-1.6,3.5-3.5S110.1,95.6,108.1,95.6z
		 M85.2,107.4c-4.5,0-8.1-3.6-8.1-8.1s3.6-8.1,8.1-8.1s8.1,3.6,8.1,8.1S89.7,107.4,85.2,107.4z"/>
</g>
</svg>
