<?xml version="1.0" encoding="utf-8"?>
<!-- Generator: Adobe Illustrator 22.1.0, SVG Export Plug-In . SVG Version: 6.00 Build 0)  -->
<svg version="1.1" id="Layer_1" xmlns="http://www.w3.org/2000/svg" xmlns:xlink="http://www.w3.org/1999/xlink" x="0px" y="0px"
	 viewBox="0 0 128 128" style="enable-background:new 0 0 128 128;" xml:space="preserve">
<style type="text/css">
	.st0{fill:#C2B280;}
</style>
<g>
	<path class="st0" d="M106.8,69.1c-2,0-3.7,1.6-3.7,3.7v39.5c0,1.9-1.5,3.4-3.4,3.4H81.8V87.2c0-3.3-2.6-5.9-5.9-5.9H52.1
		c-3.3,0-5.9,2.6-5.9,5.9v28.4H28.3c-1.9,0-3.4-1.5-3.4-3.4V72.8c0-2-1.6-3.7-3.7-3.7s-3.7,1.6-3.7,3.7v41c0,5.1,4.1,9.2,9.2,9.2
		h74.7c5.1,0,9.2-4.1,9.2-9.2v-41C110.5,70.7,108.9,69.1,106.8,69.1z M53.5,88.7h21v27h-21V88.7z"/>
	<path class="st0" d="M121.9,61.4L66.6,6.1c-1.4-1.4-3.8-1.4-5.2,0L6.1,61.4c-1.4,1.4-1.4,3.8,0,5.2c1.4,1.4,3.8,1.4,5.2,0L64,13.9
		l52.7,52.7c0.7,0.7,1.7,1.1,2.6,1.1s1.9-0.4,2.6-1.1C123.4,65.2,123.4,62.8,121.9,61.4z"/>
</g>
</svg>
