<?xml version="1.0" encoding="utf-8"?>
<!-- Generator: Adobe Illustrator 22.1.0, SVG Export Plug-In . SVG Version: 6.00 Build 0)  -->
<svg version="1.1" id="Layer_1" xmlns="http://www.w3.org/2000/svg" xmlns:xlink="http://www.w3.org/1999/xlink" x="0px" y="0px"
	 viewBox="0 0 128 128" style="enable-background:new 0 0 128 128;" xml:space="preserve">
<style type="text/css">
	.st0{fill:#C2B280;}
</style>
<g>
	<path class="st0" d="M101.9,22H26.1c-5.2,0-9.4,4.2-9.4,9.4v46.5c0,5.2,4.2,9.4,9.4,9.4h24.4v11.2h-30c-2.1,0-3.7,1.7-3.7,3.7
		c0,2.1,1.7,3.7,3.7,3.7h86.9c2.1,0,3.7-1.7,3.7-3.7c0-2.1-1.7-3.7-3.7-3.7h-30V87.2h24.4c5.2,0,9.4-4.2,9.4-9.4V31.4
		C111.2,26.2,107,22,101.9,22z M70,98.5H58V87.2h12V98.5z M103.7,77.9c0,1-0.8,1.9-1.9,1.9H26.1c-1,0-1.9-0.8-1.9-1.9V31.4
		c0-1,0.8-1.9,1.9-1.9h75.7c1,0,1.9,0.8,1.9,1.9V77.9z"/>
	<path class="st0" d="M80.1,50.1c-1.7,0-2.6-2.1-1.4-3.3c0.4-0.4,0.6-0.9,0.6-1.4c0-0.5-0.2-1-0.6-1.4L75,40.3c-0.8-0.8-2-0.8-2.7,0
		c-0.4,0.4-0.9,0.6-1.3,0.6c-1,0-1.9-0.8-1.9-1.9c0-0.5-0.2-1-0.6-1.4C68,37.2,67.5,37,67,37h-5.3c-1.1,0-1.9,0.9-1.9,1.9
		c0,1.2-0.9,1.9-1.9,1.9c-0.5,0-1-0.2-1.3-0.6c-0.4-0.4-0.9-0.6-1.4-0.6c-0.5,0-1,0.2-1.4,0.6L50,44c-0.8,0.8-0.8,2,0,2.7
		c0.4,0.4,0.6,0.9,0.6,1.3c0,1-0.8,1.9-1.9,1.9c-0.5,0-1,0.2-1.4,0.6C47,51,46.8,51.5,46.8,52v5.3c0,1.1,0.9,1.9,1.9,1.9
		c1.2,0,1.9,0.9,1.9,1.9c0,0.5-0.2,1-0.6,1.3c-0.4,0.4-0.6,0.9-0.6,1.4c0,0.5,0.2,1,0.6,1.4l3.7,3.7c0.8,0.8,2,0.8,2.7,0
		c0.4-0.4,0.9-0.6,1.3-0.6c1,0,1.9,0.8,1.9,1.9c0,0.5,0.2,1,0.6,1.4c0.4,0.3,0.8,0.6,1.4,0.6H67c1.1,0,1.9-0.9,1.9-1.9
		c0-1.2,0.9-1.9,1.9-1.9c0.5,0,1,0.2,1.3,0.6c0.4,0.4,0.9,0.6,1.4,0.6c0.5,0,1-0.2,1.4-0.6l3.7-3.7c0.8-0.8,0.8-2,0-2.7
		c-0.4-0.4-0.6-0.9-0.6-1.3c0-1,0.8-1.9,1.9-1.9c0.5,0,1-0.2,1.4-0.6c0.3-0.4,0.6-0.8,0.6-1.4V52C82,50.9,81.1,50.1,80.1,50.1z
		 M64.3,62.4c-4.3,0-7.8-3.5-7.8-7.8c0-4.3,3.5-7.8,7.8-7.8c4.3,0,7.8,3.5,7.8,7.8C72.1,58.9,68.6,62.4,64.3,62.4z"/>
</g>
</svg>
