<?xml version="1.0" encoding="utf-8"?>
<!-- Generator: Adobe Illustrator 22.1.0, SVG Export Plug-In . SVG Version: 6.00 Build 0)  -->
<svg version="1.1" id="Layer_1" xmlns="http://www.w3.org/2000/svg" xmlns:xlink="http://www.w3.org/1999/xlink" x="0px" y="0px"
	 viewBox="0 0 128 128" style="enable-background:new 0 0 128 128;" xml:space="preserve">
<style type="text/css">
	.st0{fill:#C2B280;}
</style>
<g>
	<path class="st0" d="M111.2,52.2V25.9c0-5.2-4.3-9.5-9.5-9.5H26.3c-5.2,0-9.5,4.3-9.5,9.5v26.3c0,4.3,2.9,8,6.9,9.1v5.2
		c-4,1.1-6.9,4.8-6.9,9.1v26.3c0,5.2,4.3,9.5,9.5,9.5h75.4c5.2,0,9.5-4.3,9.5-9.5V75.8c0-4.1-2.7-7.7-6.4-9v-5.6
		C108.6,59.9,111.2,56.4,111.2,52.2z M24.3,25.9c0-1.1,0.9-2,2-2h75.4c1.1,0,2,0.9,2,2v26.3c0,1.1-0.9,2-2,2H26.3c-1.1,0-2-0.9-2-2
		V25.9z M31.1,66.2v-4.5h66.2v4.5H31.1z M103.7,102.1c0,1.1-0.9,2-2,2H26.3c-1.1,0-2-0.9-2-2V75.8c0-1.1,0.9-2,2-2h75.4
		c1.1,0,2,0.9,2,2V102.1z"/>
	<circle class="st0" cx="34.9" cy="38.9" r="3.4"/>
	<circle class="st0" cx="44.1" cy="38.9" r="3.4"/>
	<circle class="st0" cx="53.4" cy="38.9" r="3.4"/>
	<path class="st0" d="M66.6,42.3h27c1.9,0,3.4-1.5,3.4-3.4s-1.5-3.4-3.4-3.4h-27c-1.9,0-3.4,1.5-3.4,3.4S64.8,42.3,66.6,42.3z"/>
	<circle class="st0" cx="34.9" cy="89.1" r="3.4"/>
	<circle class="st0" cx="44.1" cy="89.1" r="3.4"/>
	<circle class="st0" cx="53.4" cy="89.1" r="3.4"/>
	<path class="st0" d="M93.6,85.7h-27c-1.9,0-3.4,1.5-3.4,3.4c0,1.9,1.5,3.4,3.4,3.4h27c1.9,0,3.4-1.5,3.4-3.4
		C97,87.2,95.5,85.7,93.6,85.7z"/>
</g>
</svg>
