<?xml version="1.0" encoding="utf-8"?>
<!-- Generator: Adobe Illustrator 22.1.0, SVG Export Plug-In . SVG Version: 6.00 Build 0)  -->
<svg version="1.1" id="Layer_1" xmlns="http://www.w3.org/2000/svg" xmlns:xlink="http://www.w3.org/1999/xlink" x="0px" y="0px"
	 viewBox="0 0 128 128" style="enable-background:new 0 0 128 128;" xml:space="preserve">
<style type="text/css">
	.st0{fill:#C2B280;}
</style>
<path class="st0" d="M90.4,71.8c-1.1,0-2.2,0.1-3.3,0.3c-0.1-0.3-0.2-0.6-0.4-0.9L75.5,51.6c3-2.9,4.9-7,4.9-11.5
	c0-8.9-7.2-16.1-16.1-16.1s-16.1,7.2-16.1,16.1c0,4.6,2,8.8,5.1,11.7L41.7,71.1c-0.2,0.3-0.3,0.7-0.4,1.1c-1.2-0.3-2.4-0.4-3.7-0.4
	c-8.9,0-16.1,7.2-16.1,16.1S28.7,104,37.6,104c7.5,0,13.9-5.2,15.6-12.2c0.1,0,0.3,0,0.4,0h21.1c0,0,0,0,0,0
	c1.8,7,8.1,12.1,15.6,12.1c8.9,0,16.1-7.2,16.1-16.1S99.3,71.8,90.4,71.8z M64.2,31.1c5,0,9,4.1,9,9s-4.1,9-9,9s-9-4.1-9-9
	S59.2,31.1,64.2,31.1z M37.6,96.8c-4.9,0-8.9-4-8.9-8.9s4-8.9,8.9-8.9s8.9,4,8.9,8.9S42.5,96.8,37.6,96.8z M74.7,84.1H53.6
	c-0.1,0-0.2,0-0.3,0c-0.8-3.4-2.7-6.4-5.3-8.6c0.1-0.2,0.3-0.3,0.4-0.5l11.5-19.4c1.4,0.4,2.8,0.6,4.3,0.6c1.6,0,3.2-0.2,4.6-0.7
	L80,75c0.1,0.1,0.2,0.2,0.2,0.4C77.5,77.6,75.5,80.6,74.7,84.1z M90.4,96.8c-4.9,0-8.9-4-8.9-8.9s4-8.9,8.9-8.9s8.9,4,8.9,8.9
	S95.3,96.8,90.4,96.8z"/>
</svg>
