<?xml version="1.0" encoding="utf-8"?>
<!-- Generator: Adobe Illustrator 23.0.5, SVG Export Plug-In . SVG Version: 6.00 Build 0)  -->
<svg version="1.1" id="Layer_1" xmlns="http://www.w3.org/2000/svg" xmlns:xlink="http://www.w3.org/1999/xlink" x="0px" y="0px"
	 viewBox="0 0 96 96" style="enable-background:new 0 0 96 96;" xml:space="preserve">
<g>
	<path d="M32,88.5H8.8c-0.7,0-1.3-0.6-1.3-1.3v-23c0-1.3-0.9-2.5-2.2-2.6c-1.5-0.1-2.8,1-2.8,2.5v24c0,3,2.5,5.5,5.5,5.5h23.9
		c1.3,0,2.5-0.9,2.6-2.2C34.6,89.8,33.5,88.5,32,88.5z"/>
	<path d="M90.7,61.5c-1.3,0.1-2.2,1.3-2.2,2.6v23c0,0.7-0.6,1.3-1.3,1.3h-22c-1.3,0-2.5,0.9-2.6,2.2c-0.1,1.5,1,2.8,2.5,2.8h23
		c3,0,5.5-2.5,5.5-5.5V64C93.5,62.5,92.2,61.4,90.7,61.5z"/>
	<path d="M32,2.5H8C5,2.5,2.5,5,2.5,8v22.9c0,1.3,0.9,2.5,2.2,2.6c1.5,0.1,2.8-1,2.8-2.5V8.8c0-0.7,0.6-1.3,1.3-1.3h23
		c1.3,0,2.5-0.9,2.6-2.2C34.6,3.8,33.5,2.5,32,2.5z"/>
	<path d="M88,2.5H65.1c-1.3,0-2.5,0.9-2.6,2.2c-0.1,1.5,1,2.8,2.5,2.8h22.2c0.7,0,1.3,0.6,1.3,1.3v22c0,1.3,0.9,2.5,2.2,2.6
		c1.5,0.1,2.8-1,2.8-2.5V8C93.5,5,91,2.5,88,2.5z"/>
</g>
</svg>
