<?xml version="1.0" encoding="utf-8"?>
<!-- Generator: Adobe Illustrator 23.0.5, SVG Export Plug-In . SVG Version: 6.00 Build 0)  -->
<svg version="1.1" id="Layer_1" xmlns="http://www.w3.org/2000/svg" xmlns:xlink="http://www.w3.org/1999/xlink" x="0px" y="0px"
	 viewBox="0 0 96 96" style="enable-background:new 0 0 96 96;" xml:space="preserve">
<g>
	<path d="M5,66.5h23.2c0.7,0,1.3,0.6,1.3,1.3v23c0,1.3,0.9,2.5,2.2,2.6c1.5,0.1,2.8-1,2.8-2.5V67c0-3-2.5-5.5-5.5-5.5H5.1
		c-1.3,0-2.5,0.9-2.6,2.2C2.4,65.2,3.5,66.5,5,66.5z"/>
	<path d="M65.3,93.5c1.3-0.1,2.2-1.3,2.2-2.6v-23c0-0.7,0.6-1.3,1.3-1.3h22c1.3,0,2.5-0.9,2.6-2.2c0.1-1.5-1-2.8-2.5-2.8H68
		c-3,0-5.5,2.5-5.5,5.5v24C62.5,92.5,63.8,93.6,65.3,93.5z"/>
	<path d="M5,33.5h24c3,0,5.5-2.5,5.5-5.5V5.1c0-1.3-0.9-2.5-2.2-2.6c-1.5-0.1-2.8,1-2.8,2.5v22.2c0,0.7-0.6,1.3-1.3,1.3h-23
		c-1.3,0-2.5,0.9-2.6,2.2C2.4,32.2,3.5,33.5,5,33.5z"/>
	<path d="M68,33.5h22.9c1.3,0,2.5-0.9,2.6-2.2c0.1-1.5-1-2.8-2.5-2.8H68.8c-0.7,0-1.3-0.6-1.3-1.3v-22c0-1.3-0.9-2.5-2.2-2.6
		c-1.5-0.1-2.8,1-2.8,2.5v23C62.5,31,65,33.5,68,33.5z"/>
</g>
</svg>
