<?xml version="1.0" encoding="utf-8"?>
<!-- Generator: Adobe Illustrator 24.3.0, SVG Export Plug-In . SVG Version: 6.00 Build 0)  -->
<svg version="1.1" id="Layer_1" xmlns="http://www.w3.org/2000/svg" xmlns:xlink="http://www.w3.org/1999/xlink" x="0px" y="0px"
	 viewBox="0 0 128 128" style="enable-background:new 0 0 128 128;" xml:space="preserve">
<style type="text/css">
	.st0{fill:#263942;}
</style>
<g>
	<path class="st0" d="M107.41,69.25c-2.01,0-3.64,1.63-3.64,3.64v41.57c0,1.07-0.87,1.94-1.94,1.94H82.01V87.52
		c0-3.25-2.64-5.9-5.9-5.9H51.92c-3.25,0-5.9,2.64-5.9,5.9v28.9H26.2c-1.07,0-1.94-0.87-1.94-1.94V72.89c0-2.01-1.63-3.64-3.64-3.64
		s-3.64,1.63-3.64,3.64v41.57c0,5.1,4.15,9.22,9.22,9.22h75.63c5.1,0,9.22-4.15,9.22-9.22V72.89
		C111.05,70.88,109.43,69.25,107.41,69.25z M53.3,88.88h21.43v27.52H53.3L53.3,88.88L53.3,88.88z"/>
	<path class="st0" d="M122.63,61.44L66.57,5.39c-0.68-0.68-1.6-1.07-2.57-1.07c-0.97,0-1.89,0.39-2.57,1.07L5.38,61.44
		c-1.43,1.43-1.43,3.74,0,5.14c1.43,1.43,3.74,1.43,5.14,0L64,13.1l53.46,53.46c0.7,0.7,1.65,1.07,2.57,1.07
		c0.92,0,1.87-0.36,2.57-1.07C124.06,65.15,124.06,62.85,122.63,61.44z"/>
</g>
</svg>
