<?xml version="1.0" encoding="utf-8"?>
<!-- Generator: Adobe Illustrator 24.3.0, SVG Export Plug-In . SVG Version: 6.00 Build 0)  -->
<svg version="1.1" id="Layer_1" xmlns="http://www.w3.org/2000/svg" xmlns:xlink="http://www.w3.org/1999/xlink" x="0px" y="0px"
	 viewBox="0 0 128 128" style="enable-background:new 0 0 128 128;" xml:space="preserve">
<style type="text/css">
	.st0{fill:#5A899D;}
</style>
<g>
	<path class="st0" d="M62.9,60.73c15.55,0,28.2-12.65,28.2-28.2S78.45,4.32,62.9,4.32s-28.23,12.65-28.23,28.2
		S47.32,60.73,62.9,60.73z M62.9,11.46c11.63,0,21.07,9.46,21.07,21.07S74.5,53.6,62.9,53.6s-21.07-9.46-21.07-21.07
		S51.27,11.46,62.9,11.46z"/>
	<path class="st0" d="M114.14,100.68c-0.05-0.12-0.1-0.21-0.14-0.33c3.26-4.4,5.18-9.85,5.18-15.72c0-14.63-11.89-26.52-26.52-26.52
		c-7.59,0-14.46,3.21-19.29,8.35l-1.74-0.45c-0.12-0.02-0.21-0.05-0.33-0.07c-2.76-0.43-5.59-0.64-8.42-0.64
		c-26.4,0-49.06,18.81-53.89,44.73c-0.62,3.38,0.26,6.83,2.47,9.46c2.21,2.66,5.47,4.19,8.94,4.19h84.95c3.45,0,6.71-1.52,8.92-4.19
		c2.21-2.69,3.12-6.18,2.47-9.61C116.17,106.77,115.29,103.68,114.14,100.68z M92.67,65.25c10.7,0,19.38,8.7,19.38,19.38
		s-8.7,19.38-19.38,19.38s-19.41-8.68-19.41-19.36S81.97,65.25,92.67,65.25z M108.79,114.95c-0.86,1.05-2.07,1.62-3.42,1.62H20.4
		c-1.33,0-2.59-0.59-3.45-1.62s-1.19-2.31-0.95-3.59c4.19-22.54,23.9-38.91,46.87-38.91c2.02,0,4.04,0.12,6.04,0.38
		c-1.78,3.57-2.78,7.56-2.78,11.82c0,14.63,11.89,26.52,26.52,26.52c5.9,0,11.34-1.93,15.77-5.21c0.55,1.74,0.98,3.5,1.31,5.28
		C109.98,112.57,109.65,113.93,108.79,114.95z"/>
	<path class="st0" d="M79.02,87.84l8.18,6.21c0.64,0.48,1.4,0.71,2.16,0.71c0.98,0,1.95-0.4,2.64-1.17
		c2.33-2.59,9.08-9.82,12.2-12.13c1.57-1.19,1.9-3.42,0.74-4.99c-1.19-1.57-3.42-1.9-4.99-0.74c-3,2.24-8.09,7.54-11.01,10.65
		l-5.61-4.26c-1.57-1.19-3.81-0.88-4.99,0.69C77.14,84.39,77.45,86.63,79.02,87.84z"/>
</g>
</svg>
