<?xml version="1.0" encoding="utf-8"?>
<!-- Generator: Adobe Illustrator 24.3.0, SVG Export Plug-In . SVG Version: 6.00 Build 0)  -->
<svg version="1.1" id="Layer_1" xmlns="http://www.w3.org/2000/svg" xmlns:xlink="http://www.w3.org/1999/xlink" x="0px" y="0px"
	 viewBox="0 0 128 128" style="enable-background:new 0 0 128 128;" xml:space="preserve">
<style type="text/css">
	.st0{fill:#5A899D;}
</style>
<g>
	<path class="st0" d="M113.3,30.39c1.49-2.31,2.36-5.07,2.36-8.01c0-8.18-6.67-14.85-14.85-14.85c-3.6,0-6.89,1.29-9.47,3.41
		C83.57,6.94,74.9,4.65,66.11,4.36c-15.93-0.54-31.12,5.11-42.79,16C11.66,31.22,4.94,45.97,4.38,61.9
		c-0.56,15.93,5.11,31.12,15.97,42.79s25.62,18.39,41.54,18.95c0.73,0.02,1.44,0.05,2.17,0.05c15.15,0,29.49-5.65,40.62-16.02
		c11.66-10.86,18.39-25.62,18.95-41.54C124.06,53.28,120.51,40.96,113.3,30.39z M100.78,14.83c4.16,0,7.55,3.38,7.55,7.55
		s-3.38,7.55-7.55,7.55s-7.55-3.38-7.55-7.55S96.62,14.83,100.78,14.83z M116.32,65.84c-0.49,13.98-6.4,26.93-16.63,36.45
		c-9.77,9.11-22.35,14.05-35.65,14.05c-0.63,0-1.27,0-1.9-0.02c-13.98-0.49-26.93-6.4-36.45-16.63S11.17,76.12,11.66,62.14
		c0.49-13.98,6.4-26.93,16.63-36.45s23.57-14.51,37.55-14.03c7.45,0.27,14.54,2.05,21.14,5.26c-0.66,1.68-1.05,3.53-1.05,5.45
		c0,8.18,6.67,14.85,14.85,14.85c2.56,0,4.97-0.66,7.09-1.8C113.79,44.49,116.69,54.96,116.32,65.84z"/>
	<path class="st0" d="M64.13,57.69c8.74,0,15.85-7.11,15.85-15.85S72.88,26,64.13,26s-15.85,7.11-15.85,15.85
		S55.42,57.69,64.13,57.69z M64.13,33.31c4.7,0,8.55,3.82,8.55,8.55s-3.82,8.55-8.55,8.55s-8.55-3.82-8.55-8.55
		S59.43,33.31,64.13,33.31z"/>
	<path class="st0" d="M83.4,66.16c-5.43-4.38-12.27-6.79-19.24-6.79s-13.83,2.41-19.24,6.79c-5.33,4.31-9.13,10.35-10.67,17
		c-0.58,2.56,0.02,5.21,1.66,7.28c1.66,2.07,4.12,3.26,6.75,3.26h42.98c2.65,0,5.11-1.19,6.75-3.26c1.63-2.07,2.24-4.72,1.66-7.28
		C92.53,76.51,88.73,70.47,83.4,66.16z M86.68,85.91c-0.15,0.19-0.49,0.51-1.05,0.51H42.66c-0.56,0-0.9-0.32-1.05-0.51
		c-0.15-0.19-0.37-0.56-0.24-1.1C43.8,74.15,53.18,66.7,64.13,66.7s20.33,7.45,22.77,18.12C87.05,85.33,86.83,85.71,86.68,85.91z"/>
</g>
</svg>
