<?xml version="1.0" encoding="utf-8"?>
<!-- Generator: Adobe Illustrator 24.3.0, SVG Export Plug-In . SVG Version: 6.00 Build 0)  -->
<svg version="1.1" id="Layer_1" xmlns="http://www.w3.org/2000/svg" xmlns:xlink="http://www.w3.org/1999/xlink" x="0px" y="0px"
	 viewBox="0 0 128 128" style="enable-background:new 0 0 128 128;" xml:space="preserve">
<style type="text/css">
	.st0{fill:#3FCBC8;}
</style>
<g>
	<g>
		<path class="st0" d="M118.54,39.19H9.46c-3.72,0-6.74-3.02-6.74-6.74v0c0-3.72,3.02-6.74,6.74-6.74h109.08
			c3.72,0,6.74,3.02,6.74,6.74v0C125.29,36.17,122.27,39.19,118.54,39.19z"/>
		<path class="st0" d="M118.54,70.74H9.46c-3.72,0-6.74-3.02-6.74-6.74v0c0-3.72,3.02-6.74,6.74-6.74h109.08
			c3.72,0,6.74,3.02,6.74,6.74v0C125.29,67.72,122.27,70.74,118.54,70.74z"/>
		<path class="st0" d="M118.54,102.3H9.46c-3.72,0-6.74-3.02-6.74-6.74v0c0-3.72,3.02-6.74,6.74-6.74h109.08
			c3.72,0,6.74,3.02,6.74,6.74v0C125.29,99.28,122.27,102.3,118.54,102.3z"/>
	</g>
</g>
</svg>
