<?xml version="1.0" encoding="utf-8"?>
<!-- Generator: Adobe Illustrator 23.0.5, SVG Export Plug-In . SVG Version: 6.00 Build 0)  -->
<svg version="1.1" id="Layer_1" xmlns="http://www.w3.org/2000/svg" xmlns:xlink="http://www.w3.org/1999/xlink" x="0px" y="0px"
	 viewBox="0 0 67 72" style="enable-background:new 0 0 67 72;" xml:space="preserve">
<style type="text/css">
	.st56{fill:white;}
</style>
<g>
	<path class="st56" d="M19.1,16.8h29.7c0.6,1,1.7,1.7,2.9,1.7c1.8,0,3.3-1.5,3.3-3.3s-1.5-3.3-3.3-3.3c-1.3,0-2.5,0.8-3,1.9H19.1
		c-3.5,0-6.3,2.8-6.3,6.3c0,3.5,2.8,6.3,6.3,6.3h32.9c6.3,0,11.4-5.1,11.4-11.4c0-6.3-5.1-11.4-11.4-11.4H18.6C9.4,3.5,2,10.9,2,20
		s7.4,16.5,16.5,16.5h28.1c7.6,0,13.7,6.2,13.7,13.7c0,7.6-6.2,13.7-13.7,13.7H13.6c-4.7,0-8.5-3.8-8.5-8.5c0-4.7,3.8-8.5,8.5-8.5
		h33.6c1.8,0,3.3,1.5,3.3,3.3s-1.5,3.3-3.3,3.3H17.3c-0.5-1.2-1.7-2-3-2c-1.8,0-3.3,1.5-3.3,3.3c0,1.8,1.5,3.3,3.3,3.3
		c1.2,0,2.3-0.7,2.9-1.7h30c3.5,0,6.4-2.9,6.4-6.4c0-3.5-2.9-6.4-6.4-6.4H13.6C7.2,43.9,2,49.1,2,55.5c0,6.4,5.2,11.6,11.6,11.6
		h33.1c9.3,0,16.8-7.5,16.8-16.8s-7.5-16.8-16.8-16.8H18.6c-7.4,0-13.5-6-13.5-13.5c0-7.4,6-13.5,13.5-13.5h33.5
		c4.6,0,8.4,3.7,8.4,8.4c0,4.6-3.7,8.4-8.4,8.4H19.1c-1.8,0-3.2-1.4-3.2-3.2C15.9,18.3,17.4,16.8,19.1,16.8z"/>
</g>
</svg>
