<?xml version="1.0" encoding="utf-8"?>
<!-- Generator: Adobe Illustrator 24.3.0, SVG Export Plug-In . SVG Version: 6.00 Build 0)  -->
<svg version="1.1" id="Layer_1" xmlns="http://www.w3.org/2000/svg" xmlns:xlink="http://www.w3.org/1999/xlink" x="0px" y="0px"
	 viewBox="0 0 128 128" style="enable-background:new 0 0 128 128;" xml:space="preserve">
<style type="text/css">
	.st0{fill:#FFFFFF;}
	.st1{fill:#F9DA00;}
</style>
<g>
	<path class="st0" d="M63.61,16.65c-25.38,0-45.95,19.95-45.95,45.94c0,16.13,7.91,29.92,19.97,38.07l9.01-17.82
		c-5.41-4.61-8.78-11.64-8.78-20.25c0-15.77,11.36-26.25,25.75-26.25c14.39,0,25.74,10.48,25.74,26.25
		c0,14.14-9.11,24.03-21.36,25.92l-14.86,18.86c3.36,0.76,6.87,1.16,10.48,1.16c25.37,0,45.94-19.94,45.94-45.95
		C109.56,36.6,88.98,16.65,63.61,16.65"/>
	<path class="st1" d="M59.72,43.26c9.75-1.22,15.41,3.4,16.45,4.35c0.11,0.1,0.13,0.25,0.05,0.38l-5.85,9.92h12.24
		c0.82,0,1.27,0.94,0.77,1.59l-51.27,65.05l28.5-56.98H47.26c-0.75,0-1.22-0.81-0.85-1.46l12.56-22.35
		C59.13,43.48,59.41,43.3,59.72,43.26"/>
	<path class="st0" d="M94.93,12.58c0.71-3.36-1.2-6.79-4.53-7.89c-2.7-0.89-5.56-0.02-7.31,1.99C53.37-4.03,18.98,13.06,9.1,41.25
		c-10.08,28.74,3.01,47.83,9.59,56.72c-3.62-5.1-19.2-29.59-5.82-58.33C26.66,10.05,59.49,2.58,81.45,10.38
		c-0.38,3.15,1.51,6.24,4.64,7.28c2.42,0.81,4.98,0.18,6.75-1.43c17.86,11.59,27.08,28.75,25.97,51.47
		c-1.21,25-22.25,49.1-53.79,52.09c0,0,34.03,0.81,50.4-29.93C130.56,61.49,120.77,29.04,94.93,12.58"/>
</g>
</svg>
