<?xml version="1.0" encoding="utf-8"?>
<!-- Generator: Adobe Illustrator 24.3.0, SVG Export Plug-In . SVG Version: 6.00 Build 0)  -->
<svg version="1.1" id="Layer_1" xmlns="http://www.w3.org/2000/svg" xmlns:xlink="http://www.w3.org/1999/xlink" x="0px" y="0px"
	 viewBox="0 0 256 256" style="enable-background:new 0 0 256 256;" xml:space="preserve">
<style type="text/css">
	.st0{fill:#231F20;}
</style>
<path class="st0" d="M224.33,32.03c-12.5-12.5-29.13-19.39-46.81-19.39h-54.78c-20.17,0-36.58,16.41-36.58,36.58v4.96H78.6
	c-18.97,0-34.4,15.43-34.4,34.4v45.64H33.07c-2.03-2.9-5.38-4.8-9.19-4.8c-6.19,0-11.21,5.02-11.21,11.21
	c0,6.19,5.02,11.21,11.21,11.21c4.63,0,8.6-2.81,10.31-6.81H44.2v72.06c0,14.55,11.84,26.39,26.39,26.39
	c14.55,0,26.39-11.84,26.39-26.39v-72.06h80.54c36.5,0,66.19-29.69,66.2-66.19C243.72,61.15,236.83,44.53,224.33,32.03z
	 M86.17,217.09c0,8.59-6.99,15.58-15.58,15.58c-8.59,0-15.58-6.99-15.58-15.58v-72.06h31.15V217.09z M86.17,134.21H55.01V88.57
	c0-13,10.58-23.58,23.58-23.58h7.57V134.21z M177.52,134.21H96.98V64.99h79.01c7.57,0,13.73,6.16,13.73,13.73
	c0,7.57-6.16,13.73-13.73,13.73h-48.34c-1.83-3.72-5.64-6.28-10.05-6.28c-6.19,0-11.21,5.02-11.21,11.21
	c0,6.19,5.02,11.21,11.21,11.21c4.03,0,7.55-2.13,9.53-5.32h48.87c13.53,0,24.54-11.01,24.54-24.54c0-13.53-11.01-24.54-24.54-24.54
	H96.98v-4.96c0-14.21,11.56-25.77,25.77-25.77h54.78c14.79,0,28.7,5.76,39.16,16.22c10.46,10.46,16.22,24.37,16.22,39.16
	C232.9,109.37,208.06,134.21,177.52,134.21z"/>
</svg>
