<?xml version="1.0" encoding="utf-8"?>
<!-- Generator: Adobe Illustrator 23.0.5, SVG Export Plug-In . SVG Version: 6.00 Build 0)  -->
<svg version="1.1" id="Layer_1" xmlns="http://www.w3.org/2000/svg" xmlns:xlink="http://www.w3.org/1999/xlink" x="0px" y="0px"
	 viewBox="0 0 226 72" style="enable-background:new 0 0 226 72;" xml:space="preserve">
<style type="text/css">
	.st56{fill:white;}
</style>
<g>
	<path class="st56" d="M19.1,16.8h29.7c0.6,1,1.7,1.7,2.9,1.7c1.8,0,3.3-1.5,3.3-3.3s-1.5-3.3-3.3-3.3c-1.3,0-2.5,0.8-3,1.9H19.1
		c-3.5,0-6.3,2.8-6.3,6.3c0,3.5,2.8,6.3,6.3,6.3h32.9c6.3,0,11.4-5.1,11.4-11.4c0-6.3-5.1-11.4-11.4-11.4H18.6C9.4,3.5,2,10.9,2,20
		s7.4,16.5,16.5,16.5h28.1c7.6,0,13.7,6.2,13.7,13.7c0,7.6-6.2,13.7-13.7,13.7H13.6c-4.7,0-8.5-3.8-8.5-8.5c0-4.7,3.8-8.5,8.5-8.5
		h33.6c1.8,0,3.3,1.5,3.3,3.3s-1.5,3.3-3.3,3.3H17.3c-0.5-1.2-1.7-2-3-2c-1.8,0-3.3,1.5-3.3,3.3c0,1.8,1.5,3.3,3.3,3.3
		c1.2,0,2.3-0.7,2.9-1.7h30c3.5,0,6.4-2.9,6.4-6.4c0-3.5-2.9-6.4-6.4-6.4H13.6C7.2,43.9,2,49.1,2,55.5c0,6.4,5.2,11.6,11.6,11.6
		h33.1c9.3,0,16.8-7.5,16.8-16.8s-7.5-16.8-16.8-16.8H18.6c-7.4,0-13.5-6-13.5-13.5c0-7.4,6-13.5,13.5-13.5h33.5
		c4.6,0,8.4,3.7,8.4,8.4c0,4.6-3.7,8.4-8.4,8.4H19.1c-1.8,0-3.2-1.4-3.2-3.2C15.9,18.3,17.4,16.8,19.1,16.8z"/>
	<path class="st56" d="M87.6,18.4c-1.8,0-2.8-1.2-3.3-2.4l-2.2,1c0.5,1.5,2,3.8,5.4,3.8c3.3,0,5.3-2.1,5.3-4.9c0-5.2-7.5-4.6-7.5-7.9
		c0-1.1,0.8-2,2.3-2c1.6,0,2.4,1.1,2.8,2l2.2-1c-0.4-1.2-1.8-3.4-4.9-3.4c-3.1,0-5,1.9-5,4.5c0,5.4,7.5,4.6,7.5,8.1
		C90.1,17.5,89.1,18.4,87.6,18.4z"/>
	<path class="st56" d="M102.4,20.5h2.6v-7.4c0-1.9,1.1-3,2.5-3c1.5,0,2.4,1,2.4,2.9v7.4h2.6v-8.1c0-2.7-1.4-4.6-4.2-4.6
		c-1.7,0-3.1,0.8-3.8,2.1c-0.6-1.3-1.8-2.1-3.6-2.1c-1.7,0-2.9,1-3.4,1.9c0,0,0-0.6,0-1.6H95v12.4h2.6V13c0-1.8,1.1-2.9,2.5-2.9
		c1.5,0,2.4,1,2.4,2.7V20.5z"/>
	<path class="st56" d="M119.3,12.6c-2.9,0-4.8,1.7-4.8,4.1c0,2.5,2.1,4.1,4.7,4.1c1.5,0,2.5-0.5,3.2-1.2l0.2,0.9h2.3v-8
		c0-2.7-1.3-4.7-4.9-4.7c-2.1,0-3.7,0.8-4.7,1.4l1,1.8c0.9-0.5,2.1-1,3.5-1c1.6,0,2.6,0.9,2.6,2.3v1.2
		C121.8,13.1,120.7,12.6,119.3,12.6z M122.3,16.6c0,1.3-1.1,2.1-2.6,2.1c-1.6,0-2.6-0.9-2.6-2.1c0-1.2,1-2.1,2.6-2.1
		S122.3,15.3,122.3,16.6z"/>
	<path class="st56" d="M130.1,15.2c0-2.7,0.8-4.8,3.5-4.8V7.8c-1.8,0-3.1,1-3.5,2.3v-2h-2.5v12.4h2.6V15.2z"/>
	<path class="st56" d="M136,15.6c0,3,0.9,5.1,3.9,5.1c0.8,0,1.3-0.1,1.3-0.1v-2.2c0,0-0.3,0-0.5,0c-1.4,0-2.1-0.4-2.1-2.4v-5.8h2.5
		V8.1h-2.5V5.5H136v2.6h-1.4v2.1h1.4V15.6z"/>
	<rect x="82.9" y="26.1" class="st56" width="4.1" height="16.7"/>
	<path class="st56" d="M96.6,29.9c-1.6,0-2.7,0.9-3.1,1.6v-1.3h-3.9v12.5h4v-7.4c0-1,0.6-1.8,1.7-1.8c1,0,1.6,0.6,1.6,1.8v7.4h4v-6.9
		C100.9,33.3,100.5,29.9,96.6,29.9z"/>
	<path class="st56" d="M103.3,37.9c0,3.7,1.7,5.1,4.7,5.1c1,0,1.5-0.1,1.5-0.1v-3.4c-0.3,0-0.5,0-0.7,0c-0.8,0-1.5-0.3-1.5-1.4v-4.6
		h2.1v-3.2h-2.1v-2.6h-4v2.6h-1.2v3.2h1.2V37.9z"/>
	<path class="st56" d="M122.8,36.7c0-4.3-2.2-6.8-6.1-6.8c-3.7,0-6.1,2.9-6.1,6.6c0,3.7,2.5,6.5,6.6,6.5c3.2,0,4.9-2,5.3-2.8l-2.6-2
		c-0.2,0.4-1.1,1.3-2.6,1.3c-1.5,0-2.5-1-2.6-2.1h8.2C122.8,37.2,122.8,37,122.8,36.7z M114.7,35c0.1-0.9,0.7-1.9,2-1.9
		c1.2,0,2,0.9,2,1.9H114.7z"/>
	<path class="st56" d="M129.7,43c1.9,0,3.1-1,3.3-1.3v0.3c0,1.5-1.5,1.9-3,1.9c-1.7,0-3.1-0.6-3.4-0.8l-1.2,3
		c1.1,0.6,2.9,1.1,4.6,1.1c3.7,0,6.9-1.5,6.9-6.1v-11h-3.7v1c-0.4-0.4-1.5-1.3-3.4-1.3c-3.6,0-6.1,2.7-6.1,6.5
		C123.8,40.4,126.1,43,129.7,43z M130.5,33.4c1.7,0,2.7,1.4,2.7,3c0,2-1.1,3.1-2.7,3.1c-1.6,0-2.7-1.3-2.7-3.1
		C127.8,34.6,128.9,33.4,130.5,33.4z"/>
	<path class="st56" d="M143.3,37.2c0-1.9,0.6-3.3,2.6-3.3c0.3,0,0.5,0,0.6,0v-4c-1.5,0-2.7,0.8-3.3,2v-1.7h-3.9v12.5h4V37.2z"/>
	<path class="st56" d="M158.2,35c0-2.9-1.1-5.1-5.4-5.1c-2.1,0-3.8,0.7-5.1,1.5l1.5,2.7c1-0.5,2-0.8,3.1-0.8c1.3,0,1.9,0.6,1.9,1.4
		v0.5c-0.5-0.2-1.3-0.5-2.4-0.5c-2.9,0-4.9,1.6-4.9,4.1c0,2.7,2.2,4.2,4.6,4.2c1.3,0,2.2-0.4,2.8-1l0.2,0.7h3.5V35z M152.7,40
		c-0.9,0-1.7-0.5-1.7-1.3c0-0.8,0.7-1.3,1.7-1.3c1,0,1.7,0.5,1.7,1.3C154.3,39.5,153.6,40,152.7,40z"/>
	<path class="st56" d="M160.7,37.9c0,3.7,1.7,5.1,4.7,5.1c1,0,1.5-0.1,1.5-0.1v-3.4c-0.3,0-0.5,0-0.7,0c-0.8,0-1.5-0.3-1.5-1.4v-4.6
		h2.1v-3.2h-2.1v-2.6h-4v2.6h-1.2v3.2h1.2V37.9z"/>
	<path class="st56" d="M174.5,43c3.2,0,4.9-2,5.3-2.8l-2.6-2c-0.2,0.4-1.1,1.3-2.6,1.3c-1.5,0-2.5-1-2.6-2.1h8.2c0-0.3,0-0.5,0-0.8
		c0-4.3-2.2-6.8-6.1-6.8c-3.7,0-6.1,2.9-6.1,6.6C167.9,40.2,170.4,43,174.5,43z M174.1,33.1c1.2,0,2,0.9,2,1.9h-4
		C172.1,34.1,172.8,33.1,174.1,33.1z"/>
	<path class="st56" d="M190.7,42.7h3.7V25.5h-4v5.7c-0.3-0.3-1.4-1.3-3.3-1.3c-3.6,0-5.9,2.7-5.9,6.6c0,3.8,2.5,6.5,6.1,6.5
		c1.8,0,3-0.9,3.4-1.3V42.7z M187.8,39.6c-1.6,0-2.7-1.2-2.7-3c0-1.8,1.1-3.1,2.7-3.1c1.6,0,2.7,1.1,2.7,3.1
		C190.5,38.2,189.5,39.6,187.8,39.6z"/>
	<polygon class="st56" points="91.9,60.5 86.5,48.3 83.1,48.3 83.1,64.9 85.7,64.9 85.7,52.1 90.6,63.5 93.1,63.5 98.1,52.1 
		98.1,64.9 100.7,64.9 100.7,48.3 97.3,48.3 	"/>
	<path class="st56" d="M108.4,52.2c-2.1,0-3.7,0.8-4.7,1.4l1,1.8c0.9-0.5,2.1-1,3.5-1c1.6,0,2.6,0.9,2.6,2.3v1.2
		c-0.5-0.4-1.5-0.9-3-0.9c-2.9,0-4.8,1.7-4.8,4.1c0,2.5,2.1,4.1,4.7,4.1c1.5,0,2.5-0.5,3.2-1.2l0.2,0.9h2.3v-8
		C113.4,54.2,112.1,52.2,108.4,52.2z M108.3,63.2c-1.6,0-2.6-0.9-2.6-2.1s1-2.1,2.6-2.1c1.6,0,2.6,0.8,2.6,2.1
		C110.9,62.3,109.8,63.2,108.3,63.2z"/>
	<path class="st56" d="M122.1,52.2c-1.7,0-3,1-3.5,1.9v-1.6h-2.5v12.4h2.6v-7.5c0-1.7,1.1-2.9,2.7-2.9c1.4,0,2.5,1,2.5,2.7v7.7h2.6
		v-7.5C126.5,54.8,125.3,52.2,122.1,52.2z"/>
	<path class="st56" d="M133.8,52.2c-2.1,0-3.7,0.8-4.7,1.4l1,1.8c0.9-0.5,2.1-1,3.5-1c1.6,0,2.6,0.9,2.6,2.3v1.2
		c-0.5-0.4-1.5-0.9-3-0.9c-2.9,0-4.8,1.7-4.8,4.1c0,2.5,2.1,4.1,4.7,4.1c1.5,0,2.5-0.5,3.2-1.2l0.2,0.9h2.3v-8
		C138.7,54.2,137.4,52.2,133.8,52.2z M133.6,63.2c-1.6,0-2.6-0.9-2.6-2.1s1-2.1,2.6-2.1s2.6,0.8,2.6,2.1
		C136.2,62.3,135.1,63.2,133.6,63.2z"/>
	<path class="st56" d="M150.7,54.2c-0.4-0.6-1.7-2-4-2c-3.5,0-6,2.7-6,6.5c0,3.8,2.4,6.5,5.9,6.5c2.5,0,3.7-1.5,4-1.9v0.8
		c0,2.4-1.8,3.1-3.9,3.1c-1.7,0-3.2-0.7-3.6-1l-0.8,2c1.1,0.6,2.8,1.2,4.5,1.2c3.6,0,6.4-1.5,6.4-6.2V52.5h-2.5V54.2z M147,63
		c-2.1,0-3.7-1.7-3.7-4.2c0-2.5,1.5-4.2,3.7-4.2c2.1,0,3.7,1.7,3.7,4.2C150.6,61.2,149.2,63,147,63z"/>
	<path class="st56" d="M161.2,52.2c-3.4,0-6,2.7-6,6.6c0,3.8,2.6,6.5,6.4,6.5c3,0,4.6-1.7,5.2-2.7l-1.7-1.3c-0.5,0.7-1.5,1.7-3.4,1.7
		c-2.2,0-3.8-1.4-3.9-3.6h9.3c0-0.2,0-0.4,0-0.6C167.2,54.8,165,52.2,161.2,52.2z M157.9,57.6c0.2-2,1.5-3.2,3.3-3.2
		s3.2,1.1,3.3,3.2H157.9z"/>
	<path class="st56" d="M182.5,52.2c-1.7,0-3.1,0.8-3.8,2.1c-0.6-1.3-1.8-2.1-3.6-2.1c-1.7,0-2.9,1-3.4,1.9c0,0,0-0.6,0-1.6h-2.5v12.4
		h2.6v-7.5c0-1.8,1.1-2.9,2.5-2.9c1.5,0,2.4,1,2.4,2.7v7.7h2.6v-7.4c0-1.9,1.1-3,2.5-3c1.5,0,2.4,1,2.4,3v7.4h2.6v-8.1
		C186.8,54.1,185.3,52.2,182.5,52.2z"/>
	<path class="st56" d="M194.8,52.2c-3.4,0-6,2.7-6,6.6c0,3.8,2.6,6.5,6.4,6.5c3,0,4.6-1.7,5.2-2.7l-1.7-1.3c-0.5,0.7-1.5,1.7-3.4,1.7
		c-2.2,0-3.8-1.4-3.9-3.6h9.3c0-0.2,0-0.4,0-0.6C200.8,54.8,198.6,52.2,194.8,52.2z M191.5,57.6c0.2-2,1.5-3.2,3.3-3.2
		s3.2,1.1,3.3,3.2H191.5z"/>
	<path class="st56" d="M208.9,52.2c-1.7,0-2.9,1-3.5,1.9v-1.6h-2.5v12.4h2.6v-7.5c0-1.7,1.1-2.9,2.7-2.9c1.4,0,2.5,1,2.5,2.7v7.7h2.6
		v-7.5C213.2,54.8,212.1,52.2,208.9,52.2z"/>
	<path class="st56" d="M220.7,62.8c-1.4,0-2.1-0.4-2.1-2.4v-5.8h2.5v-2.1h-2.5v-2.6H216v2.6h-1.4v2.1h1.4V60c0,3,0.9,5.1,3.9,5.1
		c0.8,0,1.3-0.1,1.3-0.1v-2.2C221.2,62.8,220.9,62.8,220.7,62.8z"/>
</g>
</svg>
